<svg width="28" height="24" viewBox="0 0 28 24" fill="none" xmlns="http://www.w3.org/2000/svg">
<path d="M2.33527 2.85859C2.33527 2.66084 2.33527 2.49904 2.33527 2.33125C2.36446 1.57619 2.94828 0.958962 3.68389 0.946977C4.95661 0.934992 6.22934 0.934992 7.50206 0.946977C8.24935 0.95297 8.839 1.57619 8.86236 2.34323C8.86236 2.49904 8.86236 2.66084 8.86236 2.85859C9.16594 2.85859 9.45785 2.85859 9.74392 2.85859C10.5963 2.86458 11.1976 3.46982 11.1976 4.34473C11.1976 9.732 11.1976 15.1193 11.1976 20.5065C11.1976 21.4054 10.6021 22.0047 9.73224 22.0106C9.45201 22.0106 9.17178 22.0106 8.86236 22.0106C8.86236 22.2084 8.86236 22.3702 8.86236 22.538C8.83317 23.293 8.24935 23.9103 7.51374 23.9223C6.24101 23.9402 4.96829 23.9342 3.69557 23.9223C2.94828 23.9163 2.35862 23.293 2.33527 22.526C2.33527 22.3702 2.33527 22.2084 2.33527 22.0106C2.03752 22.0106 1.76313 22.0106 1.4829 22.0106C0.589656 22.0106 0 21.4054 0 20.4886C0 15.1193 0 9.75597 0 4.38668C0 3.45185 0.583818 2.85859 1.49457 2.8526C1.76313 2.8526 2.03169 2.8526 2.33527 2.8526V2.85859ZM0.945785 19.8593C4.06921 19.7035 7.15761 19.5477 10.2402 19.3919V18.4391C7.12842 18.5889 4.03418 18.7387 0.945785 18.8885V19.8653V19.8593ZM10.2518 14.6039C7.13425 14.7537 4.04586 14.9035 0.951623 15.0533V16.0241C4.05753 15.8683 7.15177 15.7125 10.2518 15.5627V14.6099V14.6039ZM10.2518 16.5215C7.14009 16.6713 4.04586 16.8211 0.9633 16.9709V17.9417C4.07505 17.7859 7.16928 17.6301 10.2518 17.4743V16.5215ZM10.2518 8.85709C7.14009 9.0069 4.04586 9.15672 0.9633 9.30653V10.2713C4.07505 10.1155 7.16345 9.9657 10.2518 9.8099V8.85709ZM0.951623 12.1889C4.05753 12.0331 7.15177 11.8833 10.246 11.7275V10.7747C7.13426 10.9245 4.04586 11.0743 0.951623 11.2241V12.1889ZM0.951623 14.1065C4.06337 13.9507 7.15761 13.8009 10.2518 13.6451V12.6923C7.14593 12.8421 4.0517 12.9919 0.951623 13.1417V14.1065ZM0.951623 6.43612C4.06337 6.2863 7.15761 6.1305 10.2518 5.98068V5.02788C7.14009 5.17769 4.04586 5.3275 0.951623 5.47731V6.43612ZM10.2518 6.93949C7.12842 7.0893 4.04002 7.23911 0.951623 7.38892V8.34773C4.06337 8.19791 7.15177 8.04211 10.2518 7.8923V6.93949ZM3.26938 2.84061H7.93409C7.93409 2.67282 7.93992 2.52301 7.93409 2.37919C7.91657 2.09754 7.74143 1.91177 7.46703 1.91177C6.2235 1.90578 4.98581 1.90578 3.74227 1.91177C3.46204 1.91177 3.29273 2.09754 3.27522 2.37919C3.26354 2.529 3.27522 2.67282 3.27522 2.84061H3.26938ZM7.93409 22.0406H3.27522C3.27522 22.2084 3.26938 22.3582 3.27522 22.502C3.29273 22.7837 3.46788 22.9694 3.74227 22.9694C4.98581 22.9754 6.2235 22.9754 7.46703 22.9694C7.74143 22.9694 7.91657 22.7777 7.93409 22.496C7.94576 22.3462 7.93409 22.2024 7.93409 22.0346V22.0406ZM0.969138 4.51252C4.02251 4.36271 7.07587 4.21289 10.1292 4.06308C10.1351 4.02713 10.1409 3.98518 10.1526 3.94922C10.0066 3.90728 9.86068 3.82338 9.71473 3.82338C6.96495 3.81739 4.221 3.81739 1.47122 3.82338C1.06255 3.82338 0.89908 4.0511 0.969138 4.51252ZM1.06839 20.8121C1.06255 20.8481 1.05087 20.8781 1.04503 20.914C1.17931 20.962 1.31359 21.0518 1.44787 21.0518C4.21517 21.0578 6.98246 21.0578 9.74976 21.0518C10.1468 21.0518 10.3277 20.7702 10.211 20.3687C7.16345 20.5185 4.11592 20.6623 1.06839 20.8121Z" fill="#DDDDDD"/>
<path d="M20.3753 11.4816C20.2293 12.4884 20.0892 13.4772 19.9491 14.4599C19.5871 16.9948 19.231 19.5296 18.8749 22.0644C18.8048 22.5498 18.7347 23.0292 18.6647 23.5146C18.618 23.8202 18.4603 23.994 18.2035 24C17.9349 24 17.7714 23.8322 17.7247 23.5086C17.1584 19.5176 16.5921 15.5206 16.02 11.4936H12.1434V10.5408H15.8624C15.8156 9.54008 16.1134 8.71311 16.884 8.10787C17.3277 7.7603 17.8357 7.61648 18.3903 7.65843C19.6747 7.75431 20.4161 8.7191 20.5562 10.4929C20.5738 10.4989 20.5913 10.5169 20.603 10.5169C22.1559 10.5169 23.7147 10.5348 25.2677 10.5169C26.2777 10.5049 27.0717 9.61798 27.0541 8.57528C27.0425 7.54457 26.2251 6.69963 25.2034 6.69963C22.7923 6.69363 20.3811 6.69963 17.9699 6.69963C16.6505 6.69963 15.3252 6.69963 14.0058 6.69963C13.0192 6.69963 12.2193 5.94457 12.1318 4.96779C12.0442 3.97303 12.7039 3.08614 13.6847 2.90037C13.8365 2.87041 13.9941 2.87041 14.1518 2.87041C16.1076 2.87041 18.0575 2.87041 20.0133 2.87041C20.422 2.87041 20.7256 2.69064 20.9065 2.31311C21.07 1.96554 21.0233 1.62996 20.7956 1.33034C20.5971 1.06667 20.3286 0.952809 20.0075 0.958802C19.1142 0.958802 18.221 0.958802 17.3277 0.958802C14.7881 0.958802 12.2544 0.958802 9.71475 0.958802H9.35278V0H9.55712C13.0484 0 16.5337 0 20.025 0C20.7664 0 21.3444 0.329588 21.7005 1.00075C22.045 1.64794 22.0275 2.30712 21.6421 2.93034C21.2743 3.53558 20.7197 3.82921 20.025 3.82921C18.0342 3.82921 16.0375 3.82921 14.0467 3.82921C13.3344 3.82921 12.8732 4.49438 13.1359 5.13558C13.2936 5.5191 13.5855 5.72884 14 5.74082C14.4378 5.75281 14.8757 5.74082 15.3136 5.74082C18.6005 5.74082 21.8815 5.74082 25.1684 5.74082C26.7447 5.74082 27.9882 7.00524 27.9999 8.58127C28.0116 10.1573 26.7973 11.4637 25.256 11.4816C23.7381 11.4996 22.226 11.4816 20.708 11.4816C20.603 11.4816 20.4979 11.4816 20.3753 11.4816ZM19.5988 10.5169C19.5988 10.3131 19.6163 10.1333 19.5988 9.95955C19.5346 9.2824 18.9858 8.68315 18.3844 8.61124C17.7189 8.53333 17.1176 8.91086 16.9015 9.60599C16.8081 9.89963 16.7848 10.2412 16.8257 10.5468C17.2168 13.3813 17.6313 16.2037 18.04 19.0382C18.0809 19.3199 18.1276 19.6075 18.1743 19.8891C18.1976 19.8891 18.2151 19.8891 18.2385 19.8831C18.6355 17.0966 19.0325 14.3101 19.4295 11.5116H18.6588V12.4285H17.7481V9.59401H18.6822V10.5228H19.5988V10.5169Z" fill="#DDDDDD"/>
</svg>
