<svg width="406" height="156" viewBox="0 0 406 156" fill="none" xmlns="http://www.w3.org/2000/svg">
<mask id="mask0_57_2366" style="mask-type:alpha" maskUnits="userSpaceOnUse" x="-1" y="0" width="407" height="156">
<path d="M-1 7C-1 3.13401 2.13401 0 6 0H399C402.866 0 406 3.13401 406 7V156H6.00001C2.13402 156 -1 152.866 -1 149V7Z" fill="url(#paint0_linear_57_2366)"/>
</mask>
<g mask="url(#mask0_57_2366)">
<mask id="mask1_57_2366" style="mask-type:alpha" maskUnits="userSpaceOnUse" x="-18" y="-6" width="476" height="163">
<path d="M-17.2782 1.36036C-17.2782 -2.50563 -14.1442 -5.63965 -10.2782 -5.63965H450.919C454.785 -5.63965 457.919 -2.50564 457.919 1.36035V156.029H-10.2782C-14.1442 156.029 -17.2782 152.895 -17.2782 149.029V1.36036Z" fill="url(#paint1_linear_57_2366)"/>
</mask>
<g mask="url(#mask1_57_2366)">
<path d="M27.814 65.6533C28.7284 68.3153 30.0831 70.8078 31.1838 73.4019C33.0295 77.7086 34.8583 81.9984 36.8057 86.2542C38.6684 90.3574 40.565 94.4436 42.7663 98.3942C44.4936 101.497 46.3563 104.515 48.3883 107.431C49.8276 109.517 51.521 111.399 53.1297 113.366C56.1608 117.062 59.8693 119.962 63.764 122.674C66.8967 124.845 70.4189 126.218 73.958 127.524C74.2628 127.642 74.6184 127.608 74.9571 127.642C74.6692 129.847 74.9571 132.034 75.3127 134.204C75.4313 134.916 75.4482 135.662 75.4313 136.391C75.3974 137.748 75.1264 137.951 73.7548 137.782C73.2468 137.714 72.7557 137.561 72.2477 137.527C69.2674 137.341 67.2862 135.849 66.3379 133.017C65.9484 131.864 65.305 130.881 64.4075 130.067C60.5297 126.506 53.9933 125.93 49.5567 128.744C44.3242 132.085 44.121 138.714 49.1842 142.326C52.6048 144.767 56.364 145.089 60.3434 144.021C63.2899 143.224 66.2194 142.394 69.1827 141.664C70.4358 141.359 71.6889 140.935 73.0098 141.207C72.7896 141.614 72.3832 141.902 72.3155 142.394C71.6212 143.14 70.9777 143.92 70.2496 144.632C68.1667 146.7 66.067 148.752 63.9333 150.77C62.3924 152.228 61.207 153.923 60.4958 155.941C59.6661 158.23 59.5645 160.57 60.1571 162.927C60.3095 163.554 60.6143 163.91 61.3256 163.893C62.3924 163.859 63.4423 163.893 64.6784 163.893C64.0519 162.689 63.51 161.638 63.51 160.434C63.4761 157.263 64.78 154.72 67.3201 152.889C70.7237 150.43 74.1951 151.99 74.6692 156.144C74.72 156.534 74.6692 156.924 74.6523 157.331C74.5168 159.349 73.45 160.926 72.1631 162.384C71.8075 162.791 71.2825 163.113 71.3503 163.876H76.0409C76.0409 163.876 76.1594 164.012 76.2102 164.08C74.5846 164.385 72.942 164.215 71.3164 164.215C66.9137 164.232 62.5109 164.198 58.1082 164.198C33.7577 164.198 9.42407 164.198 -14.9265 164.198C-17.4665 164.198 -17.2125 164.402 -17.2125 161.926C-17.2125 149.21 -17.2125 136.493 -17.2125 123.777C-17.2125 123.437 -17.2125 123.098 -17.2125 122.759C-17.1617 121.589 -17.1617 121.589 -15.9594 121.488C-12.488 121.199 -9.16903 120.335 -6.08711 118.673C1.49914 114.604 6.13895 108.313 7.90004 99.9033C8.44192 97.3091 8.86526 94.681 9.40713 92.0868C10.5925 86.2881 13.4712 81.354 17.3321 76.9456C20.7188 73.0798 24.3426 69.4344 27.8648 65.6872L27.814 65.6533Z" fill="#A8C3CD"/>
<path d="M155.227 160.905C156.125 158.819 157.564 157.056 158.851 155.208C162.424 150.087 166.776 145.662 171.314 141.423C175.48 137.54 180.086 134.166 185.047 131.334C187.011 130.215 188.993 129.13 190.957 128.045C191.397 127.791 191.905 127.604 191.922 126.994C192.498 127.231 193.074 127.435 193.632 127.723C197.883 129.944 202.133 132.165 206.383 134.386C212.09 137.37 217.797 140.338 223.503 143.305C224.147 143.644 224.79 143.915 225.027 144.763C225.739 147.374 229.278 149.68 232.546 149.46C235.865 149.222 237.457 146.543 235.916 143.627C234.476 140.88 230.768 139.219 227.669 140.083C226.704 140.355 225.959 140.236 225.095 139.846C220.946 137.947 216.764 136.099 212.598 134.217C206.841 131.623 201.083 128.994 195.326 126.4C197.426 125.027 199.796 124.298 202.15 123.535C205.418 122.484 208.72 121.551 212.09 120.89C214.783 120.364 217.492 119.906 220.235 119.584C224.553 119.076 228.871 118.94 233.206 118.872C239.302 122.891 243.841 128.113 245.551 135.387C246.516 139.507 245.991 143.474 244.01 147.222C242.926 149.273 241.572 151.155 240.234 153.054C238.405 155.665 236.779 158.378 236.085 161.515C235.12 165.872 235.865 170.044 237.592 174.079C237.812 174.605 238.032 175.113 238.253 175.639C238.269 175.69 238.236 175.741 238.219 175.859C237.914 176.249 237.44 176.114 237.016 176.114C221.708 176.114 206.417 176.114 191.109 176.147C190.076 176.147 189.484 175.69 188.84 174.978C182.643 168.009 175.056 163.397 165.861 161.549C162.864 160.955 159.816 160.769 156.768 160.921C156.26 160.938 155.752 160.938 155.244 160.955L155.227 160.905Z" fill="#A8C3CD"/>
<path d="M235.814 119.262C240.251 119.025 244.552 119.923 248.853 120.771C255.914 122.144 262.603 124.705 269.258 127.384C272.543 128.706 275.879 129.944 279.249 131.063C279.858 129.368 281.078 128.13 282.127 126.756C282.28 126.553 282.466 126.451 282.703 126.587C282.991 126.722 283.143 126.994 283.059 127.282C282.957 127.604 282.771 127.892 282.585 128.164C282.026 128.944 281.484 129.741 280.874 130.47C280.383 131.046 280.519 131.487 281.044 131.894C282.026 132.657 283.025 133.386 283.99 134.149C284.532 134.573 284.786 134.2 285.074 133.81C286.361 132.097 287.648 130.385 288.952 128.689C289.324 128.198 289.714 127.706 290.12 127.248C290.34 127.011 290.645 127.062 290.882 127.248C291.136 127.435 291.255 127.706 291.068 127.977C290.764 128.452 290.442 128.91 290.103 129.368C288.867 131.046 287.648 132.742 286.361 134.369C285.802 135.081 285.921 135.59 286.564 136.065C287.377 136.675 288.207 137.252 289.019 137.862C289.646 138.337 290.12 138.252 290.577 137.608C291.068 136.913 291.593 136.268 292.118 135.59C292.321 135.319 292.559 135.065 292.796 134.844C293.067 134.59 293.388 134.505 293.676 134.81C293.913 135.065 293.862 135.319 293.676 135.573C292.965 136.523 292.271 137.489 291.542 138.422C290.848 139.32 290.831 139.303 291.695 139.982C292.491 140.609 293.287 141.253 294.116 141.83C294.997 142.44 295.251 142.406 295.928 141.541C297.215 139.897 298.451 138.218 299.721 136.557C300.026 136.15 300.348 135.76 300.653 135.353C300.822 135.132 301.008 134.878 301.347 135.048C301.703 135.234 301.787 135.556 301.686 135.912C301.533 136.404 301.212 136.794 300.907 137.218C299.535 139.015 298.214 140.829 296.826 142.627C296.386 143.203 296.369 143.576 296.995 144C297.876 144.61 298.705 145.289 299.569 145.933C300.246 146.442 300.805 146.34 301.279 145.645C301.618 145.136 302.024 144.644 302.38 144.153C302.515 143.966 302.6 143.746 302.769 143.593C303.193 143.22 303.531 142.338 304.226 142.881C304.801 143.339 304.175 143.898 303.887 144.356C303.515 144.916 303.074 145.441 302.668 145.984C302.499 146.204 302.312 146.425 302.16 146.662C301.787 147.205 301.787 147.662 302.414 148.086C303.244 148.663 304.023 149.324 304.852 149.917C305.75 150.562 305.953 150.528 306.63 149.646C308.036 147.798 309.391 145.933 310.796 144.102C311.135 143.661 311.541 142.779 312.201 143.254C313.031 143.83 312.201 144.458 311.829 144.933C310.39 146.882 308.916 148.815 307.426 150.714C307.003 151.257 307.071 151.596 307.579 151.969C308.493 152.63 309.391 153.309 310.288 154.004C310.898 154.478 311.423 154.411 311.88 153.783C312.388 153.105 312.879 152.41 313.387 151.749C313.624 151.443 313.878 151.138 314.166 150.85C314.386 150.613 314.674 150.63 314.928 150.799C315.3 151.037 315.283 151.359 315.08 151.664C314.606 152.359 314.098 153.037 313.607 153.715C313.37 154.038 313.133 154.343 312.913 154.682C312.557 155.241 312.625 155.733 313.184 156.157C313.996 156.75 314.792 157.378 315.622 157.988C316.232 158.429 316.74 158.344 317.214 157.717C317.891 156.818 318.636 155.954 319.331 155.072C319.551 154.784 319.771 154.563 320.16 154.563C319.585 156.14 319.06 157.751 318.433 159.311C316.486 164.058 315.436 169.009 315.216 174.13C315.131 176.232 315.046 176.097 313.048 176.097C307.799 176.097 302.549 176.097 297.283 176.097C278.978 176.097 260.689 176.097 242.384 176.097C241.876 176.097 241.368 176.063 240.86 176.097C240.014 176.164 239.506 175.791 239.133 175.045C235.848 168.45 235.56 161.939 239.726 155.581C241.063 153.546 242.452 151.562 243.773 149.511C245.365 147.018 246.533 144.339 246.855 141.338C247.363 136.404 246.025 131.945 243.502 127.774C241.792 124.942 239.573 122.534 237.05 120.415C236.627 120.059 236.119 119.771 235.814 119.279V119.262Z" fill="#A8C3CD"/>
<path d="M27.2553 64.4665C25.8668 66.3316 24.2242 67.9593 22.6324 69.6379C20.2448 72.1304 17.891 74.6398 15.6727 77.2848C11.5409 82.2019 8.91622 87.7972 7.91714 94.1724C7.42606 97.36 6.95193 100.565 5.76658 103.583C1.97345 113.349 -5.12173 118.995 -15.519 120.436C-15.7899 120.47 -16.0778 120.453 -16.3656 120.487C-17.0261 120.538 -17.2801 120.216 -17.2631 119.589C-17.2631 119.131 -17.2631 118.69 -17.2631 118.232C-17.2631 89.2723 -17.2631 60.3294 -17.2631 31.3695C-17.2631 30.7422 -17.2123 30.1318 -17.1954 29.5044C-15.7899 29.5214 -14.3675 29.4027 -12.9959 29.5892C-8.35605 30.2166 -3.93638 31.59 0.263153 33.6585C-0.397259 34.2859 -1.227 34.6759 -1.81968 35.388C-3.71624 37.6091 -3.12357 40.322 -0.464993 41.5089C0.263151 41.831 1.02517 42.0006 1.82104 42.0515C4.49655 42.221 6.66406 41.2376 8.45902 39.3216C10.9991 41.3224 13.2343 43.6283 15.3002 46.0699C18.9409 50.3766 22.0059 55.1071 24.6983 60.092C25.4942 61.5672 26.1038 63.161 27.2214 64.4665H27.2553Z" fill="#A8C3CD"/>
<path d="M168.329 163.995C167.821 164.028 167.313 164.079 166.805 164.079C136.934 164.079 107.046 164.079 77.1755 164.079C76.8368 164.079 76.4981 164.062 76.1595 164.045C76.1087 163.978 76.0579 163.91 75.9901 163.842C77.7512 161.417 78.3608 158.654 78.31 155.703C78.2761 154.143 77.8697 152.634 76.8368 151.464C74.6016 148.955 74.3814 146.276 75.8885 143.343C76.0409 143.038 76.1595 142.732 76.2949 142.41C76.6844 142.122 76.7691 141.698 76.7521 141.257C77.4295 140.952 77.9713 141.342 78.4793 141.647C79.1567 142.037 79.834 142.478 80.4098 143.004C84.3384 146.615 89.1645 147.972 94.2953 148.531C98.461 148.989 102.61 149.074 106.775 148.531C110.01 148.107 113.244 147.649 116.326 146.513C118.9 148.633 121.575 150.6 124.59 152.109C130.652 155.127 137.07 156.67 143.809 157.077C149.939 157.45 156.001 156.941 162.013 155.771C162.402 155.703 162.792 155.686 163.198 155.652C163.672 156.975 164.671 157.975 165.45 159.111C166.5 160.671 167.686 162.146 168.346 163.944L168.329 163.995Z" fill="#A8C3CD"/>
<path d="M116.343 146.548C113.261 147.701 110.027 148.158 106.792 148.565C102.644 149.108 98.478 149.006 94.3123 148.565C89.1814 148.006 84.3554 146.632 80.4268 143.038C79.851 142.512 79.1737 142.071 78.4963 141.681C77.9883 141.376 77.4295 140.986 76.7691 141.291C75.533 140.885 74.2799 140.613 73.0098 141.19C71.689 140.918 70.419 141.342 69.1828 141.648C66.2195 142.377 63.2899 143.207 60.3435 144.004C56.381 145.073 52.6049 144.75 49.1843 142.309C44.1211 138.697 44.3243 132.068 49.5568 128.728C53.9765 125.913 60.5128 126.489 64.4076 130.05C65.305 130.864 65.9485 131.864 66.338 133C67.3032 135.849 69.2675 137.324 72.2478 137.51C72.7558 137.544 73.2469 137.697 73.7549 137.765C75.1096 137.934 75.3975 137.731 75.4313 136.374C75.4483 135.645 75.4313 134.899 75.3128 134.187C74.9403 132.017 74.6693 129.83 74.9572 127.625C75.7192 122.624 77.8698 118.13 80.3929 113.841C85.6592 104.871 92.9915 97.9704 102.017 92.8668C102.305 92.7142 102.576 92.4768 102.982 92.5446C103.135 93.0363 102.779 93.3754 102.576 93.7485C98.7659 100.734 94.9219 107.72 91.1457 114.722C88.4702 119.69 85.6423 124.573 83.1192 129.609C81.5782 131.966 80.3929 134.526 79.0043 136.968C78.4625 137.917 78.5979 138.121 79.6986 138.189C81.883 138.307 84.0844 138.409 86.2858 138.494C90.6208 138.663 94.9558 138.799 99.2908 138.986C102.999 139.138 106.708 139.308 110.416 139.477C112.16 142.038 114.142 144.394 116.36 146.565L116.343 146.548ZM56.3302 140.851C58.1421 140.851 59.9879 140.325 61.2749 139.392C63.5948 137.731 63.8996 135.001 62.003 132.966C59.3275 130.101 53.7902 129.83 50.8776 132.441C48.6593 134.425 48.7101 137.087 51.0131 138.986C52.554 140.24 54.349 140.834 56.3302 140.851Z" fill="#F3F3F3"/>
<path d="M107.673 130.61C108.909 130.61 110.162 130.61 111.399 130.644C118.798 130.847 126.08 131.712 133.09 134.238C139.661 136.595 145.672 139.952 151.226 144.208C154.749 146.887 157.661 150.176 160.845 153.211C161.302 153.652 161.59 154.195 161.911 154.737C159.067 155.551 156.137 155.805 153.208 156.043C146.112 156.585 139.085 156.195 132.227 154.127C127.536 152.719 123.167 150.617 119.273 147.616C118.731 147.209 118.172 146.836 117.766 146.259C125.149 143.597 129.026 141.732 130.144 140.291C124.59 140.054 119.019 139.799 113.464 139.579C112.906 139.562 112.347 139.63 111.788 139.664C109.908 136.883 108.418 133.933 107.673 130.644V130.61Z" fill="#A8C3CD"/>
<path d="M0.279837 33.6585C-3.9197 31.5899 -8.33937 30.2165 -12.9792 29.5892C-14.3508 29.4027 -15.7732 29.5214 -17.1787 29.5044C-17.1956 26.622 -17.1787 23.7565 -17.2634 20.8741C-17.2972 19.9246 -16.84 19.6024 -16.0442 19.4159C-13.1993 18.7208 -10.3206 18.0934 -7.42495 17.7204C-1.46432 16.9574 4.4963 16.9404 10.4061 18.3138C17.3828 19.9415 23.5466 23.0444 28.4404 28.3853C29.05 29.0466 29.6766 29.6909 30.083 30.5217C23.2249 31.7595 16.3837 32.9972 9.52558 34.2519C8.71277 34.4045 7.98463 34.3028 7.27342 33.828C6.2574 33.1498 5.10591 32.9972 3.90363 32.9463C2.61667 32.8785 1.49906 33.455 0.279837 33.6585Z" fill="#94ACB5"/>
<path d="M27.2553 64.4663C26.1377 63.1608 25.5281 61.567 24.7322 60.0918C22.0397 55.1069 18.9748 50.3764 15.334 46.0697C13.2681 43.6281 11.016 41.3222 8.49286 39.3214C8.74686 38.4059 9.49194 38.1854 10.2878 37.9989C12.1505 37.5581 14.0132 37.1172 15.859 36.6764C21.1084 35.4556 26.3747 34.2348 31.6242 32.9971C33.4869 35.4895 34.4013 38.3889 34.9939 41.3731C36.0438 46.5105 35.4004 51.4615 33.0127 56.1582C31.4718 59.1932 29.5583 61.9569 27.2384 64.4494L27.2553 64.4663Z" fill="#94ACB5"/>
<path d="M110.399 139.46C106.691 139.291 102.982 139.121 99.2738 138.969C94.9388 138.799 90.6038 138.646 86.2687 138.477C84.0674 138.392 81.8829 138.29 79.6816 138.172C78.564 138.104 78.4454 137.9 78.9873 136.951C80.3759 134.509 81.5612 131.949 83.1022 129.592C85.4559 129.813 87.8097 129.881 90.1465 130.254C90.3159 130.287 90.4852 130.287 90.6545 130.287C95.9548 130.203 101.238 130.898 106.538 130.61C107.487 133.712 108.757 136.663 110.399 139.46Z" fill="#A8C3CD"/>
<path d="M31.6243 33.0141C26.3749 34.2349 21.1085 35.4556 15.8591 36.6934C13.9964 37.1342 12.1337 37.5751 10.288 38.0159C9.50901 38.2024 8.747 38.4398 8.49299 39.3384C6.69803 41.2544 4.5136 42.2378 1.85502 42.0683C1.05914 42.0174 0.297132 41.8478 -0.431014 41.5257C-3.08959 40.3558 -3.68226 37.6259 -1.7857 35.4048C-1.19302 34.7096 -0.363279 34.3027 0.297132 33.6753C1.51635 33.4719 2.63397 32.8954 3.92093 32.9632C5.12321 33.031 6.29163 33.1667 7.29071 33.8449C8.00192 34.3196 8.73007 34.4214 9.54288 34.2688C16.401 33.031 23.2422 31.7763 30.1003 30.5386C30.7438 31.2846 31.3534 32.0476 31.6582 32.9971L31.6243 33.0141ZM3.48065 35.0148C2.3461 35.1335 1.29622 35.4556 0.500336 36.3543C-0.549547 37.5412 -0.346345 38.7959 1.00834 39.5758C2.56624 40.4745 4.95387 39.9488 5.98682 38.4737C6.7319 37.4225 6.49483 36.2526 5.41108 35.5743C4.8184 35.2183 4.17493 35.0826 3.48065 34.9978V35.0148Z" fill="#F3F3F3"/>
<path d="M111.788 139.63C112.347 139.596 112.906 139.528 113.465 139.545C119.036 139.783 124.59 140.02 130.144 140.257C129.027 141.699 125.149 143.564 117.766 146.226C115.395 144.344 113.515 142.055 111.771 139.613L111.788 139.63Z" fill="#F3F3F3"/>
<path d="M31.3531 30.3691C41.835 28.4871 52.2999 26.5202 62.8157 24.8247C62.9681 24.8077 63.1544 24.8247 63.256 25.1638C62.9681 25.5368 62.4432 25.5707 61.9859 25.6894C52.6555 27.9106 43.3421 30.1317 34.0116 32.3529C33.5714 32.4546 33.1311 32.5564 32.6739 32.4546C32.2336 31.7594 31.7933 31.0643 31.3531 30.3861V30.3691Z" fill="#F3F3F3"/>
<path d="M200.537 151.923C201.333 151.482 202.179 151.719 203.009 151.719C202.213 152.092 201.383 152.007 200.537 151.923Z" fill="#A8C3CD"/>
<path d="M195.338 151.719C196.049 151.719 196.778 151.516 197.455 151.923C196.727 152.008 196.016 152.075 195.338 151.719Z" fill="#A8C3CD"/>
<path d="M186.296 116.995C186.618 116.706 187.024 116.723 187.414 116.774C187.075 117.012 186.702 117.062 186.296 116.995Z" fill="#A8C3CD"/>
<path d="M219.71 110.683C219.913 110.411 220.134 110.394 220.388 110.632C220.168 110.649 219.93 110.666 219.71 110.683Z" fill="#A8C3CD"/>
<path d="M320.127 154.546C320.11 154.207 320.262 153.953 320.55 153.766C320.567 154.122 320.482 154.41 320.127 154.546Z" fill="#A8C3CD"/>
<path d="M210.037 150.905C210.274 150.702 210.545 150.668 210.85 150.702C210.613 150.922 210.342 150.973 210.037 150.905Z" fill="#A8C3CD"/>
<path d="M195.292 126.349C201.049 128.961 206.807 131.572 212.564 134.166C216.73 136.048 220.912 137.896 225.061 139.795C225.925 140.185 226.67 140.304 227.635 140.032C230.734 139.168 234.442 140.829 235.882 143.576C237.423 146.509 235.831 149.188 232.512 149.409C229.227 149.646 225.705 147.323 224.993 144.712C224.756 143.864 224.13 143.593 223.469 143.254C217.763 140.287 212.056 137.32 206.349 134.335C202.099 132.114 197.849 129.876 193.598 127.672C193.057 127.384 192.464 127.18 191.888 126.943C191.482 126.434 190.855 126.265 190.313 125.993C185.724 123.586 181.118 121.178 176.529 118.77C176.106 118.55 175.547 118.465 175.395 117.872C175.767 117.397 176.14 117.753 176.445 117.906C181.288 120.076 186.114 122.263 190.94 124.433C192.379 125.078 193.819 125.705 195.258 126.349H195.292ZM231.005 147.205C233.257 147.238 234.256 145.967 233.596 144.288C233.003 142.762 230.649 141.626 229.074 142.118C227.601 142.576 227.076 143.797 227.821 145.17C228.566 146.526 229.786 147.137 231.005 147.205Z" fill="#F3F3F3"/>
<path d="M76.3121 142.428C76.1767 142.733 76.0581 143.055 75.9057 143.36C74.3986 146.276 74.6188 148.955 76.854 151.482C77.887 152.652 78.2934 154.161 78.3272 155.721C78.378 158.654 77.7854 161.418 76.0073 163.859C74.4494 163.859 72.8746 163.859 71.3167 163.859C71.249 163.096 71.7739 162.774 72.1295 162.367C73.3996 160.909 74.4833 159.332 74.6188 157.314C74.6526 156.924 74.6865 156.517 74.6357 156.127C74.1446 151.973 70.6902 150.414 67.2865 152.872C64.7465 154.703 63.4426 157.247 63.4765 160.417C63.4765 161.638 64.0353 162.689 64.6449 163.876C63.4087 163.876 62.3419 163.859 61.292 163.876C60.5978 163.893 60.293 163.537 60.1236 162.91C59.5309 160.536 59.6495 158.213 60.4623 155.924C61.1735 153.923 62.3589 152.228 63.8998 150.753C66.0335 148.735 68.1332 146.683 70.216 144.615C70.9442 143.903 71.5877 143.123 72.2819 142.377C73.6197 142.139 74.9575 142.377 76.2783 142.428H76.3121Z" fill="#F3F3F3"/>
<path d="M76.3117 142.427C74.9739 142.394 73.6531 142.122 72.3154 142.377C72.3831 141.885 72.8064 141.597 73.0097 141.19C74.2797 140.613 75.5328 140.868 76.7689 141.291C76.7689 141.732 76.7012 142.156 76.3117 142.444V142.427Z" fill="#94ACB5"/>
<path d="M56.3303 140.851C54.349 140.834 52.5541 140.24 51.0131 138.986C48.6932 137.087 48.6593 134.425 50.8776 132.441C53.8071 129.83 59.3275 130.084 62.003 132.967C63.8996 135.018 63.5948 137.748 61.2749 139.393C59.9879 140.308 58.1252 140.851 56.3303 140.851Z" fill="#A8C3CD"/>
<path d="M3.48053 35.0149C4.15787 35.0827 4.81828 35.2353 5.41096 35.5914C6.51164 36.2526 6.73178 37.4395 5.9867 38.4908C4.95375 39.9489 2.56611 40.4745 1.00822 39.5929C-0.346466 38.8129 -0.549668 37.5582 0.500216 36.3713C1.2961 35.4727 2.34598 35.1505 3.48053 35.0319V35.0149Z" fill="#A8C3CD"/>
<path d="M231.005 147.205C229.786 147.137 228.567 146.526 227.821 145.17C227.059 143.797 227.584 142.576 229.075 142.118C230.649 141.643 233.003 142.762 233.596 144.288C234.256 145.967 233.257 147.238 231.005 147.205Z" fill="#A8C3CD"/>
</g>
</g>
<defs>
<linearGradient id="paint0_linear_57_2366" x1="19.6547" y1="16.5523" x2="98.4935" y2="263.032" gradientUnits="userSpaceOnUse">
<stop stop-color="#E3F0F5"/>
<stop offset="1" stop-color="#B5C5CC"/>
</linearGradient>
<linearGradient id="paint1_linear_57_2366" x1="457.92" y1="67.7927" x2="-17.2782" y2="67.7927" gradientUnits="userSpaceOnUse">
<stop stop-color="#D0D6DB"/>
<stop offset="0.98481" stop-color="#C4CCD2"/>
</linearGradient>
</defs>
</svg>
