<svg width="31" height="31" viewBox="0 0 31 31" fill="none" xmlns="http://www.w3.org/2000/svg">
<path d="M31 15.5C31 24.0604 24.0604 31 15.5 31C6.93959 31 0 24.0604 0 15.5C0 6.93959 6.93959 0 15.5 0C24.0604 0 31 6.93959 31 15.5Z" fill="black"/>
<path fill-rule="evenodd" clip-rule="evenodd" d="M17.805 19.4723L15.6582 20.8947L15.4513 22.7821H24.698L24.8532 20.7716L23.0685 19.4996L18.0249 5.38488L13.5373 6.27389L8.51949 19.4586L6.56668 20.8673L6.32096 22.7548H14.0158L14.2098 20.7306L11.7655 19.4723L12.244 17.9405H17.3136L17.805 19.4723ZM14.7529 9.99406L13.1493 15.0819H16.3954L14.7529 9.99406ZM14.766 13.8039L14.747 13.8641H14.7854L14.766 13.8039Z" fill="#76EA8C"/>
</svg>
