<svg width="26" height="24" viewBox="0 0 26 24" fill="none" xmlns="http://www.w3.org/2000/svg">
<path d="M18.9025 13.4381V13.7799C18.9025 15.4053 18.9025 17.0306 18.9025 18.656C18.9025 19.1269 18.7342 19.2943 18.2609 19.2943C14.7553 19.2943 11.2531 19.2943 7.74749 19.2943C7.27423 19.2943 7.10946 19.1269 7.10946 18.6525C7.10946 17.0271 7.10946 15.4018 7.10946 13.7764C7.10946 13.6753 7.10946 13.5741 7.10946 13.452C7.0043 13.4485 6.91315 13.4416 6.822 13.4381C6.03323 13.4381 5.24796 13.4381 4.45919 13.4381C3.96489 13.4381 3.80363 13.2776 3.80363 12.7893C3.80363 10.9024 3.79662 9.01889 3.80363 7.13192C3.81065 5.64607 4.62396 4.49506 6.00869 3.96838C6.0753 3.94396 6.16644 3.85328 6.16644 3.7905C6.18047 3.2708 6.17345 2.74761 6.17345 2.18954H5.85795C4.16472 2.18954 2.47149 2.18954 0.778255 2.18954C0.711647 2.18954 0.641534 2.18954 0.574927 2.18954C0.227867 2.17908 0 1.97678 0 1.6803C0 1.37686 0.21735 1.17804 0.574927 1.17804C2.32775 1.17804 4.08058 1.17804 5.8299 1.17804C5.93156 1.17804 6.03323 1.17804 6.17345 1.17804C6.17345 0.972257 6.17345 0.780421 6.17345 0.588586C6.18397 0.183987 6.35925 0.00610386 6.76942 0.00261594C7.47055 -0.00087198 8.17518 -0.00087198 8.87631 0.00261594C9.30751 0.00261594 9.48279 0.187475 9.4863 0.626953C9.4863 0.801349 9.4863 0.975745 9.4863 1.16409H16.5151C16.5151 0.958306 16.5116 0.76647 16.5151 0.574634C16.5256 0.201427 16.7079 0.00959119 17.076 0.00610327C17.8122 -0.000872565 18.5484 -0.000872565 19.2846 0.00610327C19.6317 0.00959119 19.8104 0.194451 19.8245 0.539755C19.8315 0.738567 19.8245 0.940866 19.8245 1.17804H20.1435C21.8542 1.17804 23.5615 1.17804 25.2723 1.17804C25.3669 1.17804 25.4581 1.17804 25.5527 1.18502C25.7946 1.21292 25.9734 1.3943 25.9979 1.63147C26.019 1.86516 25.8787 2.08839 25.6439 2.15117C25.5317 2.18257 25.409 2.18605 25.2933 2.18605C23.5825 2.18605 21.8753 2.18605 20.1645 2.18605C20.0629 2.18605 19.9647 2.18605 19.828 2.18605C19.828 2.74063 19.8245 3.27777 19.835 3.81142C19.835 3.86374 19.9296 3.93699 19.9962 3.9614C21.2232 4.43227 21.9454 5.31472 22.1662 6.59827C22.2013 6.79708 22.1978 6.99938 22.1978 7.20168C22.1978 9.05377 22.1978 10.9059 22.1978 12.7579C22.1978 13.2741 22.04 13.4276 21.5107 13.4276C20.7394 13.4276 19.9717 13.4276 19.2005 13.4276C19.1093 13.4276 19.0182 13.4276 18.892 13.4276L18.9025 13.4381ZM17.8858 18.2688C17.8858 18.1572 17.8858 18.0596 17.8858 17.9619C17.8858 15.5448 17.8858 13.1277 17.8858 10.7105C17.8858 10.6268 17.8823 10.5431 17.8893 10.4594C17.9174 10.1699 18.1312 9.97109 18.4082 9.97806C18.6851 9.98504 18.892 10.1873 18.899 10.4838C18.906 10.9303 18.899 11.3767 18.899 11.8232C18.899 12.015 18.899 12.2068 18.899 12.4091H21.1776C21.1812 12.3394 21.1882 12.2906 21.1882 12.2417C21.1882 10.5152 21.1882 8.78868 21.1882 7.06216C21.1882 6.88777 21.1706 6.7064 21.1251 6.53898C20.9463 5.84139 20.5326 5.33216 19.8735 5.01476C19.6737 5.44726 19.5966 5.49609 19.1268 5.49609C18.5098 5.49609 17.8893 5.48911 17.2724 5.49609C16.9954 5.49958 16.7325 5.49609 16.5572 5.21357C16.0734 7.32725 14.913 8.45384 13.1988 8.5236C12.382 8.55499 11.6388 8.35967 10.9727 7.8888C10.0612 7.24354 9.57043 6.34714 9.45825 5.18566C9.27946 5.47516 9.04809 5.50306 8.79218 5.49958C8.17518 5.48911 7.55468 5.48562 6.93769 5.49958C6.55908 5.51004 6.24006 5.46121 6.15242 5.01127C6.08581 5.03917 6.04725 5.05312 6.0122 5.07405C5.22693 5.52399 4.82027 6.20065 4.81677 7.10053C4.80976 8.79217 4.81677 10.4838 4.81677 12.1789C4.81677 12.2522 4.82378 12.3254 4.83079 12.4091H7.10596C7.10596 12.2975 7.10596 12.2068 7.10596 12.1162C7.10596 11.5686 7.10245 11.021 7.10946 10.4733C7.11297 10.1908 7.3198 9.99202 7.58623 9.98155C7.85266 9.97109 8.07352 10.1525 8.11208 10.4245C8.1261 10.5152 8.11909 10.6094 8.11909 10.7036C8.11909 13.1277 8.11909 15.5518 8.11909 17.9794C8.11909 18.077 8.11909 18.1747 8.11909 18.2723H17.8788L17.8858 18.2688ZM15.502 4.81943C15.4704 4.80897 15.4529 4.7985 15.4389 4.7985C13.8473 4.7985 12.2593 4.7985 10.6677 4.79153C10.517 4.79153 10.4854 4.85431 10.4854 4.98685C10.4714 6.63315 12.063 7.85741 13.665 7.42491C14.8324 7.11099 15.6773 5.91813 15.502 4.81943ZM9.50383 3.76259H16.5046V2.21396H9.50383V3.76259ZM7.21463 1.03155V4.46018H8.46265V1.03155H7.21463ZM18.7938 4.46715V1.03155H17.5528V4.46715H18.7938Z" fill="#DDDDDD"/>
<path d="M8.83785 23.996C7.61788 23.9855 6.71693 22.6392 7.37249 21.5754C7.69501 21.0487 8.11569 20.5813 8.52234 20.1105C8.71515 19.8872 9.03417 19.8837 9.22347 20.107C9.63363 20.5848 10.0789 21.0522 10.3803 21.5963C10.9973 22.7055 10.1174 24.0309 8.83785 23.9995V23.996ZM8.87291 21.1464C8.64153 21.4847 8.4347 21.7498 8.26643 22.0358C8.09816 22.3148 8.17528 22.6148 8.42769 22.8206C8.6801 23.0298 9.05871 23.0333 9.31462 22.8275C9.56703 22.6252 9.65116 22.3113 9.49341 22.0428C9.31812 21.7498 9.10779 21.4777 8.87641 21.1429L8.87291 21.1464Z" fill="#DDDDDD"/>
<path d="M17.1321 23.9961C15.8595 23.9926 15.0217 22.6811 15.6387 21.579C15.9401 21.0453 16.3783 20.5814 16.7815 20.1105C16.9708 19.8873 17.2933 19.8838 17.4826 20.1036C17.8928 20.5814 18.3205 21.0558 18.643 21.5894C19.2845 22.6463 18.3871 24.01 17.1286 23.9961H17.1321ZM17.1426 21.1465C16.9112 21.4778 16.7009 21.7499 16.5256 22.0428C16.3643 22.3149 16.4485 22.6218 16.7009 22.8276C16.9533 23.0334 17.3319 23.0334 17.5878 22.8241C17.8367 22.6184 17.9173 22.3149 17.7526 22.0394C17.5808 21.7534 17.3775 21.4848 17.1461 21.1465H17.1426Z" fill="#DDDDDD"/>
<path d="M13.0024 23.996C11.7825 24.0065 10.8324 22.6671 11.5055 21.565C11.8245 21.0383 12.2522 20.5744 12.6554 20.1035C12.8447 19.8838 13.1637 19.8838 13.353 20.1035C13.7562 20.5744 14.1803 21.0383 14.5029 21.565C15.1724 22.6602 14.2294 24.0065 13.0024 23.9926V23.996ZM13.0024 21.1429C12.7606 21.4952 12.5537 21.7708 12.3819 22.0637C12.2312 22.3218 12.3188 22.6288 12.5607 22.8241C12.8166 23.0299 13.1988 23.0299 13.4512 22.8241C13.6896 22.6253 13.7772 22.3184 13.6265 22.0602C13.4547 21.7673 13.2443 21.4917 13.006 21.1429H13.0024Z" fill="#DDDDDD"/>
</svg>
