<svg width="78" height="78" viewBox="0 0 78 78" fill="none" xmlns="http://www.w3.org/2000/svg">
<g filter="url(#filter0_d_57_2407)">
<circle cx="29" cy="29" r="29" transform="matrix(-1 0 0 1 68 9)" fill="white"/>
<circle cx="29" cy="29" r="28.5" transform="matrix(-1 0 0 1 68 9)" stroke="#E6E6E6"/>
</g>
<path d="M43.7747 28.2702C44.059 28.5718 44.072 29.0218 43.8263 29.3365L43.722 29.4476L34.126 37.9988L43.722 46.5524C44.0322 46.8288 44.0853 47.276 43.8686 47.6103L43.7747 47.7298C43.4904 48.0313 43.0304 48.083 42.6866 47.8723L42.5637 47.781L32.278 38.6143C31.9444 38.317 31.9111 37.8272 32.1779 37.4914L32.278 37.3857L42.5637 28.219C42.9126 27.908 43.4548 27.931 43.7747 28.2702Z" fill="black" stroke="black" stroke-width="0.6"/>
<defs>
<filter id="filter0_d_57_2407" x="0" y="0" width="78" height="78" filterUnits="userSpaceOnUse" color-interpolation-filters="sRGB">
<feFlood flood-opacity="0" result="BackgroundImageFix"/>
<feColorMatrix in="SourceAlpha" type="matrix" values="0 0 0 0 0 0 0 0 0 0 0 0 0 0 0 0 0 0 127 0" result="hardAlpha"/>
<feOffset dy="1"/>
<feGaussianBlur stdDeviation="5"/>
<feComposite in2="hardAlpha" operator="out"/>
<feColorMatrix type="matrix" values="0 0 0 0 0 0 0 0 0 0 0 0 0 0 0 0 0 0 0.1 0"/>
<feBlend mode="normal" in2="BackgroundImageFix" result="effect1_dropShadow_57_2407"/>
<feBlend mode="normal" in="SourceGraphic" in2="effect1_dropShadow_57_2407" result="shape"/>
</filter>
</defs>
</svg>
