<svg width="61" height="51" viewBox="0 0 61 51" fill="none" xmlns="http://www.w3.org/2000/svg">
<path d="M37.6994 32.0007L37.6994 31.0192C37.7144 30.0512 37.6923 29.0134 37.6695 27.9445C37.6527 27.155 37.6356 26.3486 37.6327 25.5407C37.6245 23.1894 37.7327 20.7313 38.2806 18.3059L38.2809 18.3045C40.3236 9.18479 47.4707 3.29022 55.4273 0.849548L55.4279 0.849357C55.9097 0.701103 56.1652 0.775058 56.3443 0.886261C56.5717 1.02753 56.799 1.30642 57.0697 1.78387C57.3537 2.28819 57.3981 2.63596 57.3462 2.87286C57.2978 3.09404 57.1314 3.37224 56.6387 3.6699C54.1785 5.12576 52.1872 7.07281 50.3276 9.06645L50.327 9.06714C46.6083 13.0638 45.1551 17.9297 44.7641 23.1152L44.764 23.1167C44.6629 24.4948 44.9613 25.6321 45.775 26.4087C46.5696 27.167 47.7079 27.4366 48.9603 27.4366C49.5214 27.4366 50.0779 27.4328 50.6314 27.429C52.0905 27.4192 53.5289 27.4095 54.975 27.4692C56.4809 27.5383 57.5931 27.9991 58.334 28.7332C59.0717 29.4642 59.5248 30.5487 59.5551 32.0327L59.5551 32.0345C59.6548 36.3875 59.6548 40.7571 59.5551 45.11C59.5152 46.7431 59.1689 47.7019 58.5918 48.279C58.0146 48.8562 57.0556 49.2025 55.4223 49.2424L55.4213 49.2424C50.8863 49.3587 46.3346 49.3587 41.7996 49.2424L41.799 49.2424C40.2108 49.2029 39.2676 48.8451 38.6931 48.2535C38.1131 47.6564 37.7637 46.6729 37.7157 45.0405C37.6492 42.4218 37.6643 39.8102 37.6816 36.8086C37.6902 35.3183 37.6994 33.7319 37.6994 32.0007Z" fill="#CEFFCF" stroke="black" stroke-width="1.5"/>
<path d="M1.69936 32.0007L1.69936 31.0192C1.71441 30.0512 1.69231 29.0134 1.66955 27.9445C1.65274 27.155 1.63556 26.3486 1.63272 25.5407C1.62447 23.1894 1.7327 20.7313 2.28065 18.3059L2.28095 18.3045C4.32364 9.18479 11.4707 3.29022 19.4273 0.849548L19.4279 0.849357C19.9097 0.701103 20.1652 0.775058 20.3443 0.886261C20.5717 1.02753 20.799 1.30642 21.0697 1.78387C21.3537 2.28819 21.3981 2.63596 21.3462 2.87286C21.2978 3.09404 21.1314 3.37224 20.6387 3.6699C18.1785 5.12576 16.1872 7.07281 14.3276 9.06645L14.327 9.06714C10.6083 13.0638 9.15511 17.9297 8.76408 23.1152L8.76397 23.1167C8.66291 24.4948 8.9613 25.6321 9.77502 26.4087C10.5696 27.167 11.7079 27.4366 12.9603 27.4366C13.5214 27.4366 14.0779 27.4328 14.6314 27.429C16.0905 27.4192 17.5289 27.4095 18.9751 27.4692C20.4809 27.5383 21.5931 27.9991 22.334 28.7332C23.0717 29.4642 23.5248 30.5487 23.5551 32.0327L23.5551 32.0345C23.6548 36.3875 23.6548 40.7571 23.5551 45.11C23.5152 46.7431 23.1689 47.7019 22.5918 48.279C22.0146 48.8562 21.0556 49.2025 19.4223 49.2424L19.4213 49.2424C14.8863 49.3587 10.3346 49.3587 5.79962 49.2424L5.79905 49.2424C4.21083 49.2029 3.26763 48.8451 2.69306 48.2535C2.11311 47.6564 1.76368 46.6729 1.71574 45.0405C1.64919 42.4218 1.66427 39.8102 1.6816 36.8086C1.6902 35.3183 1.69936 33.7319 1.69936 32.0007Z" fill="#CEFFCF" stroke="black" stroke-width="1.5"/>
</svg>
