<svg width="78" height="78" viewBox="0 0 78 78" fill="none" xmlns="http://www.w3.org/2000/svg">
<g filter="url(#filter0_d_57_2404)">
<circle cx="39" cy="38" r="29" fill="white"/>
<circle cx="39" cy="38" r="28.5" stroke="#E6E6E6"/>
</g>
<path d="M34.2253 28.2702C33.941 28.5718 33.928 29.0218 34.1737 29.3365L34.278 29.4476L43.874 37.9988L34.278 46.5524C33.9678 46.8288 33.9147 47.276 34.1314 47.6103L34.2253 47.7298C34.5096 48.0313 34.9696 48.083 35.3134 47.8723L35.4363 47.781L45.722 38.6143C46.0556 38.317 46.0889 37.8272 45.8221 37.4914L45.722 37.3857L35.4363 28.219C35.0874 27.908 34.5452 27.931 34.2253 28.2702Z" fill="black" stroke="black" stroke-width="0.6"/>
<defs>
<filter id="filter0_d_57_2404" x="0" y="0" width="78" height="78" filterUnits="userSpaceOnUse" color-interpolation-filters="sRGB">
<feFlood flood-opacity="0" result="BackgroundImageFix"/>
<feColorMatrix in="SourceAlpha" type="matrix" values="0 0 0 0 0 0 0 0 0 0 0 0 0 0 0 0 0 0 127 0" result="hardAlpha"/>
<feOffset dy="1"/>
<feGaussianBlur stdDeviation="5"/>
<feComposite in2="hardAlpha" operator="out"/>
<feColorMatrix type="matrix" values="0 0 0 0 0 0 0 0 0 0 0 0 0 0 0 0 0 0 0.1 0"/>
<feBlend mode="normal" in2="BackgroundImageFix" result="effect1_dropShadow_57_2404"/>
<feBlend mode="normal" in="SourceGraphic" in2="effect1_dropShadow_57_2404" result="shape"/>
</filter>
</defs>
</svg>
