<svg width="92" height="99" viewBox="0 0 92 99" fill="none" xmlns="http://www.w3.org/2000/svg">
<path d="M6.85959 90.7972C8.94867 91.5682 10.6444 92.245 12.3709 92.8126C23.2519 96.4434 34.2636 97.9295 45.4758 94.6078C52.7839 92.4462 59.0172 88.5991 63.5578 82.3424C67.5642 76.8065 69.6401 70.6509 69.1826 63.769C69.1058 62.6976 69.383 62.3223 70.4323 62.0605C78.4723 60.0717 84.9871 55.939 88.9384 48.4356C91.6804 43.2537 92.1407 37.7119 91.1059 31.9985C89.9655 25.7362 87.138 20.3208 83.0694 15.4489C77.7897 9.12399 71.0236 4.82353 63.8847 1.00678C63.7109 0.910166 63.4976 0.74339 63.3329 0.761411C62.9833 0.8271 62.5338 0.911555 62.3224 1.1581C62.2115 1.32114 62.3522 1.85058 62.54 2.08678C62.7921 2.38845 63.2099 2.54264 63.5422 2.79046C67.7088 5.88584 72.1117 8.72999 76.0016 12.1359C82.7706 18.0647 87.4548 25.3288 88.2786 34.5852C88.7706 40.1678 87.5799 45.3427 84.0307 49.7585C80.26 54.4356 75.2715 57.2214 69.4114 58.5034C68.5921 58.6832 68.2603 58.3706 67.9765 57.6354C64.5626 48.5684 57.9113 42.9148 48.9158 39.9381C45.5872 38.8442 42.3128 39.175 39.8667 42.1295C37.5768 44.8867 37.4052 49.172 39.3395 52.6351C40.772 55.1712 42.8981 57.0081 45.3814 58.416C51.0233 61.6479 57.1124 63.1023 63.5978 62.918C64.8201 62.8823 65.2066 63.2104 65.2373 64.4456C65.3077 71.0641 63.2194 76.886 58.7639 81.7693C52.1813 88.9785 43.6567 91.7436 34.1971 92.1376C27.1123 92.4345 20.3202 90.9571 13.674 88.6249C12.883 88.3469 12.1122 88.0393 11.3313 87.7465C11.3323 87.617 11.3482 87.4977 11.3491 87.3682C12.1089 87.1479 12.8437 86.9323 13.6035 86.712C14.1534 86.5441 14.7177 86.451 15.258 86.2331C16.2535 85.8263 16.8059 84.6625 16.5235 83.733C16.2263 82.7935 15.1145 82.0587 14.1151 82.3111C9.88736 83.4027 5.67933 84.5294 1.48571 85.731C-0.0338294 86.1716 -0.399356 87.7011 0.547658 89.1262C1.9288 91.1936 3.36998 93.2368 4.77609 95.2995C5.25968 95.9973 5.7231 96.7246 6.22159 97.4324C7.01109 98.5768 8.17569 98.9139 9.1828 98.2981C10.2 97.6675 10.4531 96.4952 9.71407 95.2767C9.05375 94.1985 8.28826 93.1789 7.59289 92.1202C7.4056 91.8193 7.26346 91.484 6.93931 90.8081L6.85959 90.7972ZM64.0715 58.9249C63.7665 59.021 63.536 59.1678 63.3165 59.1702C56.579 59.0528 50.3012 57.4917 44.9316 53.1874C43.4491 52.0052 42.3686 50.4242 42.1439 48.4497C41.7982 45.3087 43.6338 43.2833 46.5341 43.6304C47.1819 43.7026 47.824 43.8792 48.431 44.0755C53.1625 45.6686 57.087 48.4475 60.3007 52.239C61.972 54.2002 63.2873 56.3963 64.0614 58.9398L64.0715 58.9249Z" fill="#76EA8C"/>
</svg>
